<svg xmlns="http://www.w3.org/2000/svg" fill="none" viewBox="0 0 182 182">
  <path fill="#141827" fill-rule="evenodd" d="M180.351 12.762A138542.15 138542.15 0 0 0 84.689.07a7.98 7.98 0 0 0-6.283 1.891L11.088 60.41c-1.446 1.255-.471 3.63 1.44 3.506l9.69-.625 3.524 7.552-.565.499a9.315 9.315 0 0 0-3.074 8.19.621.621 0 0 0 .901.47l6.514-3.369 7 12.599c.335.604 1.026.945 1.714.88 1.557-.145 3.079-.254 4.567-.328 12.13-.602-.21 8.849-12.273 10.261-1.241 7.692 5.456 14.268 13.245 14.431 8.35.175 15.14 1.764 20.61 4.169 7.168 3.153.778 8.918-6.977 7.824a42.963 42.963 0 0 0-7.12-.426c-1.577.044-2.84 1.238-3.133 2.788l-1.51 7.963c-1.412 7.458 3.315 14.697 10.645 16.669.773.208 1.545.418 2.315.629 4.943 1.354 3.862 8.024-1.261 7.898a.523.523 0 0 0-.529.609c.105.622.215 1.241.328 1.856 2.811 15.288 19.72 21.626 33.539 14.506l45.613-23.503c1.889-.973 3.248-2.755 3.606-4.849 6.285-36.74-8.954-61.785-29.659-76.474-2.099-1.49-3.043-4.963-2.225-7.403.115-.343.217-.658.302-.924.371-1.175 11.006-.344 16.568.174a3.033 3.033 0 0 0 3.319-3.012V47.681l3.425-2.055a2 2 0 0 0 .748-2.634l-2.914-5.633c5.772-.641 40.766-17.618 51.195-22.727.887-.434.674-1.74-.305-1.87ZM35.308 66.311l-.442-.884a3 3 0 0 1 2.201-4.303l23.734-3.864c2.183-.355 3.987 1.693 3.359 3.814l-2.034 6.865c-.378 1.274-1.551 2.13-2.873 2.266-4.807.493-9.655 2.454-13.293 4.371-2.523 1.33-5.8.552-7.128-1.972l6.383-2.676a.906.906 0 0 0 .21-1.549l-1.933-1.518a7.276 7.276 0 0 0-8.184-.55Zm-17.76-17.192 2.426-2.047a6 6 0 0 0 1.39-7.472L9.57 18.103a5.095 5.095 0 0 0-4.467-2.645c-3.864 0-6.322 4.132-4.479 7.527L14.5 48.545a2 2 0 0 0 3.047.574Z" clip-rule="evenodd"/>
</svg>
