<svg xmlns="http://www.w3.org/2000/svg" fill="none" viewBox="0 0 84 84">
  <circle cx="42" cy="42" r="42" fill="#0D1333"/>
  <path fill="#F9F9F9" fill-rule="evenodd" d="M65.944 18.715c-5.248-.697-15.76-2.094-23.278-3.089a7.985 7.985 0 0 0-6.286 1.89l-15.697 13.63c-1.12.972-.365 2.81 1.116 2.715l1.035 2.219-.166.146a2.736 2.736 0 0 0-.903 2.405.182.182 0 0 0 .264.139l1.914-.99 2.055 3.7a.523.523 0 0 0 .504.26 30.76 30.76 0 0 1 1.341-.097c3.563-.177-.061 2.598-3.605 3.013-.364 2.26 1.603 4.19 3.89 4.239 2.453.051 4.448.518 6.054 1.224 2.105.926.228 2.62-2.05 2.298a12.62 12.62 0 0 0-2.09-.125c-.464.013-.834.364-.92.819l-.444 2.339c-.415 2.19.974 4.316 3.127 4.895l.68.185c1.451.398 1.134 2.357-.371 2.32a.153.153 0 0 0-.155.179c.03.182.063.364.096.545.826 4.49 5.792 6.352 9.85 4.26l13.027-6.712c.789-.406 1.36-1.15 1.497-2.027 1.642-10.43-2.661-17.602-8.547-21.882-.73-.53-1.068-1.752-.796-2.612.066-.21 1.235-.202 2.51-.13 1.782.1 3.33-1.28 3.33-3.065v-2.129a1.837 1.837 0 0 0 .687-2.419l-.316-.612c1.41-.157 8.757-3.633 12.952-5.661.889-.43.674-1.74-.305-1.87Zm-37.33 16.641-.567-.446a2.137 2.137 0 0 0-2.404-.161c-.33-.66.075-1.452.803-1.57l5.271-.859a1.78 1.78 0 0 1 1.993 2.263c-.224.756-.924 1.26-1.698 1.407-1.186.227-2.34.711-3.24 1.186-.741.39-1.704.162-2.094-.579l1.875-.786a.266.266 0 0 0 .061-.455Zm-7.365-8.998-3.165-5.768a1.497 1.497 0 0 0-2.628 1.433l3.927 7.235a.84.84 0 0 0 1.281.24 2.522 2.522 0 0 0 .585-3.14Z" clip-rule="evenodd"/>
</svg>
